<svg xmlns="http://www.w3.org/2000/svg" viewBox="0 0 128 128" width="128" height="128">
  <rect width="128" height="128" rx="28" fill="#1F2937"/>
  <g fill="none" stroke="#FFFFFF" stroke-opacity="0.45" stroke-width="8" stroke-linecap="round" stroke-linejoin="round">
    <path d="M24 46 L24 24 L46 24"/>
    <path d="M104 82 L104 104 L82 104"/>
    <path d="M46 104 L24 104 L24 82"/>
  </g>
  <g fill="#FFFFFF" fill-opacity="0.45">
    <path d="M82 20 L105 20 L105 22 L104 22 L104 24 L103 24 L103 25.5 L102 25.5 L102 27 L101 27 L101 28 L100 28 L82 28 A4 4 0 0 1 82 20 Z"/>
    <path d="M108 30 L108 46 A4 4 0 0 1 100 46 L100 43 L101 43 L101 41 L103 41 L103 38 L105 38 L105 35 L107 35 L107 32 L108 32 Z"/>
  </g>
  <polyline points="36,82 56,66 74,76 113,15" fill="none" stroke="#F97316" stroke-width="8" stroke-linecap="round" stroke-linejoin="round"/>
</svg>
